# xmcd
#
# Track frame offsets: 
#        150
#        25506
#        56506
#        84938
#        121324
#        148511
#        186222
#        219046
#        252121
#
# Disc length: 3679 seconds
#
# Revision: 0
# Processed by: cddbd v1.5.2PL0 Copyright (c) Steve Scherf et al.
# Submitted via: ExactAudioCopy v1.1
#
DISCID=6a0e5d09
DTITLE=Heggen,Maass,Pertiet - b.live
DYEAR=2013
DGENRE=Blues
TTITLE0=King Biscuit Stomp
TTITLE1=Must Have Been The Boogie
TTITLE2=Make My Getaway
TTITLE3=Sunnyland Train
TTITLE4=Alright
TTITLE5=Louise
TTITLE6=Can't Hold On Much Longer
TTITLE7=Walk With Me
TTITLE8=Flip, Flop And Fly
EXTD=
EXTT0=
EXTT1=
EXTT2=
EXTT3=
EXTT4=
EXTT5=
EXTT6=
EXTT7=
EXTT8=
PLAYORDER=
